<svg width="245" height="148" viewBox="0 0 245 148" fill="none" xmlns="http://www.w3.org/2000/svg">
<g clip-path="url(#clip0_12_2945)">
<path d="M54.047 0H14.8102H0V14.7982V148H14.8102V14.7982H54.047V148H68.8572V14.7982V0H54.047Z" fill="#B32235"/>
<path d="M35.231 133.202V93.1219L88.8738 56.2427L120.516 77.9993H146.798L88.8738 38.3662L20.3105 85.3433L20.4147 148H24.0223H35.231H238.593L245 133.202H35.231Z" fill="#B4B4B4"/>
<path d="M96.6465 103.153L104.615 85.2334H108.713L116.761 103.153H112.406L105.822 87.3326H107.488L100.903 103.153H96.6526H96.6465ZM100.671 99.3094L101.724 96.1576H110.997L112.075 99.3094H100.671Z" fill="#0D0802"/>
<path d="M118.629 103.153V85.2334H122.059L129.697 97.8773H127.878L135.356 85.2334H138.817V103.153H134.946L134.897 91.2004H135.669L129.623 101.237H127.78L121.655 91.2004H122.5V103.153H118.629Z" fill="#0D0802"/>
<path d="M147.227 99.8235H156.99V103.153H143.104V85.2334H156.659V88.5627H147.233V99.8296L147.227 99.8235ZM146.914 92.4244H155.55V95.6741H146.914V92.4244Z" fill="#0D0802"/>
<path d="M160.292 103.153V85.2334H168.052C169.657 85.2334 171.041 85.4966 172.205 86.0168C173.368 86.537 174.263 87.2836 174.894 88.2567C175.524 89.2298 175.843 90.3803 175.843 91.7145C175.843 93.0486 175.524 94.2176 174.894 95.1845C174.263 96.1515 173.362 96.8859 172.205 97.3877C171.041 97.8896 169.657 98.1405 168.052 98.1405H162.57L164.469 96.3473V103.159H160.292V103.153ZM164.469 96.8002L162.57 94.8296H167.825C169.087 94.8296 170.042 94.5542 170.692 94.0095C171.341 93.4648 171.666 92.6937 171.666 91.7084C171.666 90.723 171.341 89.9519 170.692 89.4195C170.042 88.8809 169.087 88.6116 167.825 88.6116H162.57L164.469 86.641V96.8063V96.8002ZM171.715 103.153L167.207 96.6472H171.666L176.174 103.153H171.715Z" fill="#0D0802"/>
<path d="M179.12 103.153V85.2334H183.297V103.153H179.12Z" fill="#0D0802"/>
<path d="M196.104 103.458C194.72 103.458 193.434 103.232 192.245 102.779C191.057 102.326 190.028 101.684 189.158 100.845C188.289 100.007 187.609 99.0275 187.125 97.9014C186.635 96.7753 186.396 95.5391 186.396 94.1927C186.396 92.8463 186.641 91.6039 187.125 90.4779C187.609 89.3518 188.295 88.3726 189.177 87.5341C190.059 86.6957 191.088 86.0531 192.276 85.6002C193.464 85.1473 194.75 84.9209 196.135 84.9209C197.69 84.9209 199.099 85.1902 200.361 85.7287C201.623 86.2673 202.682 87.0568 203.54 88.0972L200.851 90.5574C200.251 89.8597 199.571 89.3273 198.811 88.9723C198.052 88.6113 197.225 88.4338 196.337 88.4338C195.498 88.4338 194.732 88.5745 194.034 88.8561C193.336 89.1376 192.729 89.5354 192.215 90.0433C191.7 90.5574 191.302 91.1633 191.02 91.861C190.739 92.5587 190.598 93.3359 190.598 94.1927C190.598 95.0495 190.739 95.8206 191.02 96.5244C191.302 97.2282 191.7 97.828 192.215 98.3421C192.729 98.8561 193.336 99.2539 194.034 99.5355C194.732 99.817 195.504 99.9577 196.337 99.9577C197.225 99.9577 198.052 99.7741 198.811 99.4069C199.571 99.0397 200.251 98.5073 200.851 97.8096L203.54 100.27C202.682 101.31 201.629 102.106 200.361 102.651C199.099 103.195 197.678 103.471 196.11 103.471L196.104 103.458Z" fill="#0D0802"/>
<path d="M203.589 103.153L211.557 85.2334H215.655L223.697 103.153H219.342L212.758 87.3326H214.424L207.84 103.153H203.589ZM207.613 99.3094L208.66 96.1576H217.934L219.012 99.3094H207.613Z" fill="#0D0802"/>
<path d="M225.572 103.153V85.2334H229.008L239.592 98.1344H237.926V85.2334H242.024V103.153H238.587L228.003 90.2518H229.669V103.153H225.572Z" fill="#0D0802"/>
<path d="M104.921 127.461C103.488 127.461 102.11 127.271 100.781 126.886C99.458 126.5 98.3922 126.004 97.5898 125.386L98.9986 122.265C99.752 122.81 100.652 123.257 101.712 123.612C102.772 123.96 103.837 124.138 104.915 124.138C105.736 124.138 106.398 124.052 106.9 123.881C107.402 123.709 107.776 123.483 108.015 123.202C108.253 122.92 108.376 122.59 108.376 122.216C108.376 121.739 108.186 121.359 107.812 121.078C107.439 120.796 106.937 120.564 106.312 120.386C105.687 120.209 105.007 120.037 104.278 119.872C103.543 119.713 102.802 119.511 102.061 119.285C101.32 119.052 100.634 118.746 100.009 118.361C99.3845 117.975 98.8883 117.473 98.5208 116.849C98.1533 116.225 97.9696 115.447 97.9696 114.505C97.9696 113.483 98.2452 112.547 98.7903 111.702C99.3355 110.857 100.168 110.184 101.289 109.682C102.41 109.181 103.813 108.93 105.503 108.93C106.63 108.93 107.745 109.064 108.848 109.34C109.95 109.615 110.912 110.007 111.732 110.515L110.428 113.636C109.625 113.177 108.799 112.828 107.941 112.602C107.084 112.369 106.269 112.259 105.479 112.259C104.689 112.259 104.003 112.351 103.507 112.528C103.01 112.706 102.649 112.951 102.416 113.257C102.184 113.563 102.073 113.905 102.073 114.279C102.073 114.756 102.263 115.141 102.637 115.429C103.01 115.717 103.507 115.943 104.125 116.108C104.738 116.274 105.424 116.433 106.177 116.598C106.93 116.763 107.672 116.959 108.407 117.198C109.142 117.436 109.815 117.742 110.428 118.11C111.04 118.477 111.543 118.973 111.928 119.597C112.314 120.221 112.504 120.992 112.504 121.916C112.504 122.926 112.229 123.844 111.671 124.683C111.114 125.521 110.275 126.194 109.148 126.702C108.021 127.216 106.612 127.467 104.921 127.467V127.461Z" fill="#0D0802"/>
<path d="M118.813 127.149V112.608H113.074V109.229H128.705V112.608H122.966V127.149H118.813Z" fill="#0D0802"/>
<path d="M127.676 127.149L135.644 109.229H139.742L147.79 127.149H143.435L136.851 111.329H138.517L131.933 127.149H127.682H127.676ZM131.7 123.312L132.753 120.16H142.027L143.105 123.312H131.7Z" fill="#0D0802"/>
<path d="M149.658 127.149V109.229H153.094L163.678 122.13H162.012V109.229H166.11V127.149H162.674L152.09 114.248H153.756V127.149H149.658Z" fill="#0D0802"/>
<path d="M170.361 127.149V109.229H178.507C180.455 109.229 182.17 109.603 183.658 110.343C185.147 111.084 186.304 112.124 187.143 113.465C187.982 114.805 188.399 116.378 188.399 118.189C188.399 120.001 187.982 121.574 187.143 122.914C186.304 124.254 185.147 125.294 183.658 126.035C182.17 126.776 180.455 127.149 178.507 127.149H170.361ZM174.538 123.771H178.305C179.499 123.771 180.541 123.544 181.416 123.091C182.298 122.638 182.978 121.99 183.468 121.145C183.952 120.301 184.197 119.315 184.197 118.189C184.197 117.063 183.952 116.053 183.468 115.221C182.978 114.383 182.298 113.74 181.416 113.287C180.534 112.834 179.499 112.608 178.305 112.608H174.538V123.771Z" fill="#0D0802"/>
<path d="M188.907 127.149L196.876 109.229H200.973L209.016 127.149H204.661L198.076 111.329H199.742L193.158 127.149H188.907ZM192.931 123.312L193.979 120.16H203.252L204.33 123.312H192.931Z" fill="#0D0802"/>
<path d="M210.89 127.149V109.229H218.651C220.255 109.229 221.64 109.493 222.803 110.013C223.967 110.533 224.861 111.28 225.492 112.253C226.123 113.226 226.442 114.376 226.442 115.711C226.442 117.045 226.123 118.214 225.492 119.181C224.861 120.148 223.961 120.882 222.803 121.384C221.64 121.886 220.255 122.137 218.651 122.137H213.169L215.067 120.343V127.155H210.89V127.149ZM215.067 120.802L213.169 118.832H218.424C219.686 118.832 220.641 118.556 221.29 118.012C221.94 117.467 222.264 116.696 222.264 115.711C222.264 114.725 221.94 113.954 221.29 113.422C220.641 112.883 219.686 112.614 218.424 112.614H213.169L215.067 110.643V120.809V120.802ZM222.319 127.149L217.811 120.643H222.27L226.778 127.149H222.319Z" fill="#0D0802"/>
<path d="M233.179 127.149V112.608H227.44V109.229H243.071V112.608H237.332V127.149H233.179Z" fill="#0D0802"/>
</g>
<defs>
<clipPath id="clip0_12_2945">
<rect width="245" height="148" fill="white"/>
</clipPath>
</defs>
</svg>
