<svg width="279" height="279" viewBox="0 0 279 279" fill="none" xmlns="http://www.w3.org/2000/svg">
<g clip-path="url(#clip0_80_5694)">
<path d="M259.547 203.669C259.002 201.736 257.728 200.09 255.993 199.078C254.258 198.066 252.198 197.767 250.247 198.244L230.949 203.437C241.509 187.871 247.912 169.862 249.549 151.124C251.132 133.593 248.569 115.935 242.066 99.5773C235.564 83.2197 225.304 68.6213 212.117 56.9615C210.592 55.7007 208.644 55.0706 206.67 55.2003C204.695 55.33 202.846 56.2096 201.499 57.659C200.145 59.2015 199.457 61.2184 199.588 63.2671C199.719 65.3158 200.657 67.2289 202.197 68.5866C213.56 78.6169 222.401 91.1832 228.002 105.267C233.603 119.351 235.808 134.557 234.437 149.652C233.109 165.551 227.777 180.855 218.937 194.137L216.999 174.684C217.146 173.539 217.034 172.376 216.673 171.28C216.312 170.184 215.711 169.182 214.914 168.348C214.116 167.513 213.143 166.868 212.064 166.458C210.985 166.048 209.828 165.884 208.678 165.979C207.528 166.073 206.413 166.423 205.415 167.003C204.418 167.584 203.562 168.379 202.912 169.332C202.261 170.286 201.831 171.372 201.654 172.512C201.476 173.653 201.556 174.818 201.887 175.924L205.762 225.834L254.199 212.969C256.118 212.408 257.746 211.127 258.742 209.394C259.739 207.661 260.027 205.61 259.547 203.669Z" fill="#D01037"/>
<path d="M33.4021 132.369C34.4321 133.032 35.5972 133.455 36.8121 133.609C38.8347 133.875 40.8803 133.332 42.5053 132.099C44.1302 130.865 45.2034 129.041 45.4921 127.022C48.6943 103.378 60.7104 81.8162 79.134 66.6548C97.5576 51.4935 121.029 43.8515 144.847 45.2594L127.487 57.1169C126.259 58.0423 125.334 59.3121 124.829 60.7649C124.325 62.2177 124.264 63.7877 124.654 65.2752C125.045 66.7626 125.869 68.1002 127.022 69.1178C128.175 70.1354 129.605 70.7869 131.13 70.9894C132.876 71.149 134.624 70.7119 136.09 69.7494L177.397 41.3844L142.057 5.88943C141.428 4.92581 140.593 4.11432 139.611 3.51386C138.629 2.91341 137.527 2.53906 136.382 2.41801C135.238 2.29695 134.081 2.43222 132.996 2.814C131.91 3.19577 130.923 3.81447 130.107 4.62518C129.29 5.43588 128.664 6.41825 128.275 7.50095C127.885 8.58366 127.741 9.73954 127.854 10.8847C127.967 12.0298 128.333 13.1354 128.927 14.1213C129.52 15.1072 130.326 15.9486 131.285 16.5844L144.46 29.7594C116.953 28.4442 89.9538 37.489 68.7907 55.1082C47.6276 72.7274 33.839 97.6406 30.1471 124.929C29.9484 126.349 30.1474 127.796 30.722 129.11C31.2967 130.423 32.2244 131.552 33.4021 132.369Z" fill="#D01037"/>
<path d="M168.408 231.958C156.306 235.823 143.54 237.168 130.898 235.91C115.502 234.401 100.704 229.167 87.7824 220.661C74.8607 212.154 64.2035 200.631 56.7308 187.085L76.0283 194.292C77.8072 194.601 79.6379 194.279 81.2046 193.382C82.7712 192.484 83.9754 191.068 84.6093 189.378C85.2433 187.687 85.2671 185.829 84.6768 184.122C84.0864 182.416 82.9189 180.97 81.3758 180.032L45.8033 166.858L34.4108 162.75L25.8083 211.963C25.5101 213.929 25.9794 215.935 27.119 217.565C28.2587 219.195 29.9815 220.325 31.9308 220.72H33.2483C35.0724 220.753 36.8497 220.142 38.2673 218.994C39.6849 217.845 40.652 216.234 40.9983 214.443L44.2533 195.843C53.0188 211.197 65.3308 224.232 80.1612 233.859C94.9916 243.485 111.91 249.423 129.503 251.177C144.212 252.635 159.064 251.052 173.136 246.527C174.928 245.786 176.376 244.399 177.195 242.641C178.015 240.884 178.145 238.883 177.561 237.033C176.977 235.184 175.721 233.621 174.041 232.653C172.361 231.684 170.379 231.381 168.486 231.802L168.408 231.958Z" fill="#D01037"/>
</g>
<defs>
<clipPath id="clip0_80_5694">
<rect width="279" height="279" fill="white"/>
</clipPath>
</defs>
</svg>
