<svg width="426" height="156" viewBox="0 0 426 156" fill="none" xmlns="http://www.w3.org/2000/svg">
<mask id="path-1-outside-1_80_7184" maskUnits="userSpaceOnUse" x="36" y="13" width="357" height="131" fill="black">
<rect fill="white" x="36" y="13" width="357" height="131"/>
<path d="M154.722 62.768C151.181 62.768 147.895 62.192 144.866 61.04C141.879 59.888 139.277 58.2667 137.058 56.176C134.882 54.0853 133.175 51.632 131.938 48.816C130.743 46 130.146 42.928 130.146 39.6C130.146 36.272 130.743 33.2 131.938 30.384C133.175 27.568 134.903 25.1147 137.122 23.024C139.341 20.9333 141.943 19.312 144.93 18.16C147.917 17.008 151.159 16.432 154.658 16.432C158.199 16.432 161.442 17.008 164.386 18.16C167.373 19.312 169.954 20.9333 172.13 23.024C174.349 25.1147 176.077 27.568 177.314 30.384C178.551 33.1573 179.17 36.2293 179.17 39.6C179.17 42.928 178.551 46.0213 177.314 48.88C176.077 51.696 174.349 54.1493 172.13 56.24C169.954 58.288 167.373 59.888 164.386 61.04C161.442 62.192 158.221 62.768 154.722 62.768ZM154.658 53.936C156.663 53.936 158.498 53.5947 160.162 52.912C161.869 52.2293 163.362 51.248 164.642 49.968C165.922 48.688 166.903 47.1733 167.586 45.424C168.311 43.6747 168.674 41.7333 168.674 39.6C168.674 37.4667 168.311 35.5253 167.586 33.776C166.903 32.0267 165.922 30.512 164.642 29.232C163.405 27.952 161.933 26.9707 160.226 26.288C158.519 25.6053 156.663 25.264 154.658 25.264C152.653 25.264 150.797 25.6053 149.09 26.288C147.426 26.9707 145.954 27.952 144.674 29.232C143.394 30.512 142.391 32.0267 141.666 33.776C140.983 35.5253 140.642 37.4667 140.642 39.6C140.642 41.6907 140.983 43.632 141.666 45.424C142.391 47.1733 143.373 48.688 144.61 49.968C145.89 51.248 147.383 52.2293 149.09 52.912C150.797 53.5947 152.653 53.936 154.658 53.936ZM213.266 62.768C206.909 62.768 201.938 60.9973 198.354 57.456C194.77 53.9147 192.978 48.8587 192.978 42.288V17.2H203.346V41.904C203.346 46.1707 204.221 49.2427 205.97 51.12C207.719 52.9973 210.173 53.936 213.33 53.936C216.487 53.936 218.941 52.9973 220.69 51.12C222.439 49.2427 223.314 46.1707 223.314 41.904V17.2H233.554V42.288C233.554 48.8587 231.762 53.9147 228.178 57.456C224.594 60.9973 219.623 62.768 213.266 62.768ZM250.2 62V17.2H269.592C273.602 17.2 277.058 17.8613 279.96 19.184C282.861 20.464 285.101 22.32 286.68 24.752C288.258 27.184 289.048 30.0853 289.048 33.456C289.048 36.784 288.258 39.664 286.68 42.096C285.101 44.4853 282.861 46.32 279.96 47.6C277.058 48.88 273.602 49.52 269.592 49.52H255.96L260.568 44.976V62H250.2ZM278.68 62L267.48 45.744H278.552L289.88 62H278.68ZM260.568 46.128L255.96 41.264H269.016C272.216 41.264 274.605 40.5813 276.184 39.216C277.762 37.808 278.552 35.888 278.552 33.456C278.552 30.9813 277.762 29.0613 276.184 27.696C274.605 26.3307 272.216 25.648 269.016 25.648H255.96L260.568 20.72V46.128ZM39.7058 140V95.2H59.0978C63.1084 95.2 66.5644 95.8613 69.4658 97.184C72.3671 98.464 74.6071 100.32 76.1858 102.752C77.7644 105.184 78.5538 108.085 78.5538 111.456C78.5538 114.784 77.7644 117.664 76.1858 120.096C74.6071 122.528 72.3671 124.405 69.4658 125.728C66.5644 127.008 63.1084 127.648 59.0978 127.648H45.4658L50.0738 122.976V140H39.7058ZM50.0738 124.128L45.4658 119.2H58.5218C61.7218 119.2 64.1111 118.517 65.6898 117.152C67.2684 115.787 68.0578 113.888 68.0578 111.456C68.0578 108.981 67.2684 107.061 65.6898 105.696C64.1111 104.331 61.7218 103.648 58.5218 103.648H45.4658L50.0738 98.72V124.128ZM92.3558 140V95.2H111.748C115.758 95.2 119.214 95.8613 122.116 97.184C125.017 98.464 127.257 100.32 128.836 102.752C130.414 105.184 131.204 108.085 131.204 111.456C131.204 114.784 130.414 117.664 128.836 120.096C127.257 122.485 125.017 124.32 122.116 125.6C119.214 126.88 115.758 127.52 111.748 127.52H98.1158L102.724 122.976V140H92.3558ZM120.836 140L109.636 123.744H120.708L132.036 140H120.836ZM102.724 124.128L98.1158 119.264H111.172C114.372 119.264 116.761 118.581 118.34 117.216C119.918 115.808 120.708 113.888 120.708 111.456C120.708 108.981 119.918 107.061 118.34 105.696C116.761 104.331 114.372 103.648 111.172 103.648H98.1158L102.724 98.72V124.128ZM167.578 140.768C164.037 140.768 160.752 140.192 157.722 139.04C154.736 137.888 152.133 136.267 149.914 134.176C147.738 132.085 146.032 129.632 144.794 126.816C143.6 124 143.002 120.928 143.002 117.6C143.002 114.272 143.6 111.2 144.794 108.384C146.032 105.568 147.76 103.115 149.978 101.024C152.197 98.9333 154.8 97.312 157.786 96.16C160.773 95.008 164.016 94.432 167.514 94.432C171.056 94.432 174.298 95.008 177.242 96.16C180.229 97.312 182.81 98.9333 184.986 101.024C187.205 103.115 188.933 105.568 190.17 108.384C191.408 111.157 192.026 114.229 192.026 117.6C192.026 120.928 191.408 124.021 190.17 126.88C188.933 129.696 187.205 132.149 184.986 134.24C182.81 136.288 180.229 137.888 177.242 139.04C174.298 140.192 171.077 140.768 167.578 140.768ZM167.514 131.936C169.52 131.936 171.354 131.595 173.018 130.912C174.725 130.229 176.218 129.248 177.498 127.968C178.778 126.688 179.76 125.173 180.442 123.424C181.168 121.675 181.53 119.733 181.53 117.6C181.53 115.467 181.168 113.525 180.442 111.776C179.76 110.027 178.778 108.512 177.498 107.232C176.261 105.952 174.789 104.971 173.082 104.288C171.376 103.605 169.52 103.264 167.514 103.264C165.509 103.264 163.653 103.605 161.946 104.288C160.282 104.971 158.81 105.952 157.53 107.232C156.25 108.512 155.248 110.027 154.522 111.776C153.84 113.525 153.498 115.467 153.498 117.6C153.498 119.691 153.84 121.632 154.522 123.424C155.248 125.173 156.229 126.688 157.466 127.968C158.746 129.248 160.24 130.229 161.946 130.912C163.653 131.595 165.509 131.936 167.514 131.936ZM227.658 140.768C224.202 140.768 220.981 140.213 217.994 139.104C215.05 137.952 212.49 136.331 210.314 134.24C208.138 132.149 206.432 129.696 205.194 126.88C204 124.064 203.402 120.971 203.402 117.6C203.402 114.229 204 111.136 205.194 108.32C206.432 105.504 208.138 103.051 210.314 100.96C212.533 98.8693 215.114 97.2693 218.058 96.16C221.002 95.008 224.224 94.432 227.722 94.432C231.605 94.432 235.104 95.1147 238.218 96.48C241.376 97.8027 244.021 99.7653 246.154 102.368L239.498 108.512C237.962 106.763 236.256 105.461 234.378 104.608C232.501 103.712 230.453 103.264 228.234 103.264C226.144 103.264 224.224 103.605 222.474 104.288C220.725 104.971 219.21 105.952 217.93 107.232C216.65 108.512 215.648 110.027 214.922 111.776C214.24 113.525 213.898 115.467 213.898 117.6C213.898 119.733 214.24 121.675 214.922 123.424C215.648 125.173 216.65 126.688 217.93 127.968C219.21 129.248 220.725 130.229 222.474 130.912C224.224 131.595 226.144 131.936 228.234 131.936C230.453 131.936 232.501 131.509 234.378 130.656C236.256 129.76 237.962 128.416 239.498 126.624L246.154 132.768C244.021 135.371 241.376 137.355 238.218 138.72C235.104 140.085 231.584 140.768 227.658 140.768ZM269.092 113.248H290.66V121.312H269.092V113.248ZM269.86 131.68H294.244V140H259.556V95.2H293.412V103.52H269.86V131.68ZM323.613 140.768C320.029 140.768 316.595 140.299 313.309 139.36C310.024 138.379 307.379 137.12 305.373 135.584L308.893 127.776C310.813 129.141 313.075 130.272 315.677 131.168C318.323 132.021 320.989 132.448 323.677 132.448C325.725 132.448 327.368 132.256 328.605 131.872C329.885 131.445 330.824 130.869 331.421 130.144C332.019 129.419 332.317 128.587 332.317 127.648C332.317 126.453 331.848 125.515 330.909 124.832C329.971 124.107 328.733 123.531 327.197 123.104C325.661 122.635 323.955 122.208 322.077 121.824C320.243 121.397 318.387 120.885 316.509 120.288C314.675 119.691 312.989 118.923 311.453 117.984C309.917 117.045 308.659 115.808 307.677 114.272C306.739 112.736 306.269 110.773 306.269 108.384C306.269 105.824 306.952 103.499 308.317 101.408C309.725 99.2747 311.816 97.5893 314.589 96.352C317.405 95.072 320.925 94.432 325.149 94.432C327.965 94.432 330.739 94.7733 333.469 95.456C336.2 96.096 338.611 97.0773 340.701 98.4L337.501 106.272C335.411 105.077 333.32 104.203 331.229 103.648C329.139 103.051 327.091 102.752 325.085 102.752C323.08 102.752 321.437 102.987 320.157 103.456C318.877 103.925 317.96 104.544 317.405 105.312C316.851 106.037 316.573 106.891 316.573 107.872C316.573 109.024 317.043 109.963 317.981 110.688C318.92 111.371 320.157 111.925 321.693 112.352C323.229 112.779 324.915 113.205 326.749 113.632C328.627 114.059 330.483 114.549 332.317 115.104C334.195 115.659 335.901 116.405 337.437 117.344C338.973 118.283 340.211 119.52 341.149 121.056C342.131 122.592 342.621 124.533 342.621 126.88C342.621 129.397 341.917 131.701 340.509 133.792C339.101 135.883 336.989 137.568 334.173 138.848C331.4 140.128 327.88 140.768 323.613 140.768ZM370.826 140.768C367.242 140.768 363.807 140.299 360.522 139.36C357.236 138.379 354.591 137.12 352.586 135.584L356.106 127.776C358.026 129.141 360.287 130.272 362.89 131.168C365.535 132.021 368.202 132.448 370.89 132.448C372.938 132.448 374.58 132.256 375.818 131.872C377.098 131.445 378.036 130.869 378.634 130.144C379.231 129.419 379.53 128.587 379.53 127.648C379.53 126.453 379.06 125.515 378.122 124.832C377.183 124.107 375.946 123.531 374.41 123.104C372.874 122.635 371.167 122.208 369.29 121.824C367.455 121.397 365.599 120.885 363.722 120.288C361.887 119.691 360.202 118.923 358.666 117.984C357.13 117.045 355.871 115.808 354.89 114.272C353.951 112.736 353.482 110.773 353.482 108.384C353.482 105.824 354.164 103.499 355.53 101.408C356.938 99.2747 359.028 97.5893 361.802 96.352C364.618 95.072 368.138 94.432 372.362 94.432C375.178 94.432 377.951 94.7733 380.682 95.456C383.412 96.096 385.823 97.0773 387.914 98.4L384.714 106.272C382.623 105.077 380.532 104.203 378.442 103.648C376.351 103.051 374.303 102.752 372.298 102.752C370.292 102.752 368.65 102.987 367.37 103.456C366.09 103.925 365.172 104.544 364.618 105.312C364.063 106.037 363.786 106.891 363.786 107.872C363.786 109.024 364.255 109.963 365.194 110.688C366.132 111.371 367.37 111.925 368.906 112.352C370.442 112.779 372.127 113.205 373.962 113.632C375.839 114.059 377.695 114.549 379.53 115.104C381.407 115.659 383.114 116.405 384.65 117.344C386.186 118.283 387.423 119.52 388.362 121.056C389.343 122.592 389.834 124.533 389.834 126.88C389.834 129.397 389.13 131.701 387.722 133.792C386.314 135.883 384.202 137.568 381.386 138.848C378.612 140.128 375.092 140.768 370.826 140.768Z"/>
</mask>
<path d="M154.722 62.768C151.181 62.768 147.895 62.192 144.866 61.04C141.879 59.888 139.277 58.2667 137.058 56.176C134.882 54.0853 133.175 51.632 131.938 48.816C130.743 46 130.146 42.928 130.146 39.6C130.146 36.272 130.743 33.2 131.938 30.384C133.175 27.568 134.903 25.1147 137.122 23.024C139.341 20.9333 141.943 19.312 144.93 18.16C147.917 17.008 151.159 16.432 154.658 16.432C158.199 16.432 161.442 17.008 164.386 18.16C167.373 19.312 169.954 20.9333 172.13 23.024C174.349 25.1147 176.077 27.568 177.314 30.384C178.551 33.1573 179.17 36.2293 179.17 39.6C179.17 42.928 178.551 46.0213 177.314 48.88C176.077 51.696 174.349 54.1493 172.13 56.24C169.954 58.288 167.373 59.888 164.386 61.04C161.442 62.192 158.221 62.768 154.722 62.768ZM154.658 53.936C156.663 53.936 158.498 53.5947 160.162 52.912C161.869 52.2293 163.362 51.248 164.642 49.968C165.922 48.688 166.903 47.1733 167.586 45.424C168.311 43.6747 168.674 41.7333 168.674 39.6C168.674 37.4667 168.311 35.5253 167.586 33.776C166.903 32.0267 165.922 30.512 164.642 29.232C163.405 27.952 161.933 26.9707 160.226 26.288C158.519 25.6053 156.663 25.264 154.658 25.264C152.653 25.264 150.797 25.6053 149.09 26.288C147.426 26.9707 145.954 27.952 144.674 29.232C143.394 30.512 142.391 32.0267 141.666 33.776C140.983 35.5253 140.642 37.4667 140.642 39.6C140.642 41.6907 140.983 43.632 141.666 45.424C142.391 47.1733 143.373 48.688 144.61 49.968C145.89 51.248 147.383 52.2293 149.09 52.912C150.797 53.5947 152.653 53.936 154.658 53.936ZM213.266 62.768C206.909 62.768 201.938 60.9973 198.354 57.456C194.77 53.9147 192.978 48.8587 192.978 42.288V17.2H203.346V41.904C203.346 46.1707 204.221 49.2427 205.97 51.12C207.719 52.9973 210.173 53.936 213.33 53.936C216.487 53.936 218.941 52.9973 220.69 51.12C222.439 49.2427 223.314 46.1707 223.314 41.904V17.2H233.554V42.288C233.554 48.8587 231.762 53.9147 228.178 57.456C224.594 60.9973 219.623 62.768 213.266 62.768ZM250.2 62V17.2H269.592C273.602 17.2 277.058 17.8613 279.96 19.184C282.861 20.464 285.101 22.32 286.68 24.752C288.258 27.184 289.048 30.0853 289.048 33.456C289.048 36.784 288.258 39.664 286.68 42.096C285.101 44.4853 282.861 46.32 279.96 47.6C277.058 48.88 273.602 49.52 269.592 49.52H255.96L260.568 44.976V62H250.2ZM278.68 62L267.48 45.744H278.552L289.88 62H278.68ZM260.568 46.128L255.96 41.264H269.016C272.216 41.264 274.605 40.5813 276.184 39.216C277.762 37.808 278.552 35.888 278.552 33.456C278.552 30.9813 277.762 29.0613 276.184 27.696C274.605 26.3307 272.216 25.648 269.016 25.648H255.96L260.568 20.72V46.128ZM39.7058 140V95.2H59.0978C63.1084 95.2 66.5644 95.8613 69.4658 97.184C72.3671 98.464 74.6071 100.32 76.1858 102.752C77.7644 105.184 78.5538 108.085 78.5538 111.456C78.5538 114.784 77.7644 117.664 76.1858 120.096C74.6071 122.528 72.3671 124.405 69.4658 125.728C66.5644 127.008 63.1084 127.648 59.0978 127.648H45.4658L50.0738 122.976V140H39.7058ZM50.0738 124.128L45.4658 119.2H58.5218C61.7218 119.2 64.1111 118.517 65.6898 117.152C67.2684 115.787 68.0578 113.888 68.0578 111.456C68.0578 108.981 67.2684 107.061 65.6898 105.696C64.1111 104.331 61.7218 103.648 58.5218 103.648H45.4658L50.0738 98.72V124.128ZM92.3558 140V95.2H111.748C115.758 95.2 119.214 95.8613 122.116 97.184C125.017 98.464 127.257 100.32 128.836 102.752C130.414 105.184 131.204 108.085 131.204 111.456C131.204 114.784 130.414 117.664 128.836 120.096C127.257 122.485 125.017 124.32 122.116 125.6C119.214 126.88 115.758 127.52 111.748 127.52H98.1158L102.724 122.976V140H92.3558ZM120.836 140L109.636 123.744H120.708L132.036 140H120.836ZM102.724 124.128L98.1158 119.264H111.172C114.372 119.264 116.761 118.581 118.34 117.216C119.918 115.808 120.708 113.888 120.708 111.456C120.708 108.981 119.918 107.061 118.34 105.696C116.761 104.331 114.372 103.648 111.172 103.648H98.1158L102.724 98.72V124.128ZM167.578 140.768C164.037 140.768 160.752 140.192 157.722 139.04C154.736 137.888 152.133 136.267 149.914 134.176C147.738 132.085 146.032 129.632 144.794 126.816C143.6 124 143.002 120.928 143.002 117.6C143.002 114.272 143.6 111.2 144.794 108.384C146.032 105.568 147.76 103.115 149.978 101.024C152.197 98.9333 154.8 97.312 157.786 96.16C160.773 95.008 164.016 94.432 167.514 94.432C171.056 94.432 174.298 95.008 177.242 96.16C180.229 97.312 182.81 98.9333 184.986 101.024C187.205 103.115 188.933 105.568 190.17 108.384C191.408 111.157 192.026 114.229 192.026 117.6C192.026 120.928 191.408 124.021 190.17 126.88C188.933 129.696 187.205 132.149 184.986 134.24C182.81 136.288 180.229 137.888 177.242 139.04C174.298 140.192 171.077 140.768 167.578 140.768ZM167.514 131.936C169.52 131.936 171.354 131.595 173.018 130.912C174.725 130.229 176.218 129.248 177.498 127.968C178.778 126.688 179.76 125.173 180.442 123.424C181.168 121.675 181.53 119.733 181.53 117.6C181.53 115.467 181.168 113.525 180.442 111.776C179.76 110.027 178.778 108.512 177.498 107.232C176.261 105.952 174.789 104.971 173.082 104.288C171.376 103.605 169.52 103.264 167.514 103.264C165.509 103.264 163.653 103.605 161.946 104.288C160.282 104.971 158.81 105.952 157.53 107.232C156.25 108.512 155.248 110.027 154.522 111.776C153.84 113.525 153.498 115.467 153.498 117.6C153.498 119.691 153.84 121.632 154.522 123.424C155.248 125.173 156.229 126.688 157.466 127.968C158.746 129.248 160.24 130.229 161.946 130.912C163.653 131.595 165.509 131.936 167.514 131.936ZM227.658 140.768C224.202 140.768 220.981 140.213 217.994 139.104C215.05 137.952 212.49 136.331 210.314 134.24C208.138 132.149 206.432 129.696 205.194 126.88C204 124.064 203.402 120.971 203.402 117.6C203.402 114.229 204 111.136 205.194 108.32C206.432 105.504 208.138 103.051 210.314 100.96C212.533 98.8693 215.114 97.2693 218.058 96.16C221.002 95.008 224.224 94.432 227.722 94.432C231.605 94.432 235.104 95.1147 238.218 96.48C241.376 97.8027 244.021 99.7653 246.154 102.368L239.498 108.512C237.962 106.763 236.256 105.461 234.378 104.608C232.501 103.712 230.453 103.264 228.234 103.264C226.144 103.264 224.224 103.605 222.474 104.288C220.725 104.971 219.21 105.952 217.93 107.232C216.65 108.512 215.648 110.027 214.922 111.776C214.24 113.525 213.898 115.467 213.898 117.6C213.898 119.733 214.24 121.675 214.922 123.424C215.648 125.173 216.65 126.688 217.93 127.968C219.21 129.248 220.725 130.229 222.474 130.912C224.224 131.595 226.144 131.936 228.234 131.936C230.453 131.936 232.501 131.509 234.378 130.656C236.256 129.76 237.962 128.416 239.498 126.624L246.154 132.768C244.021 135.371 241.376 137.355 238.218 138.72C235.104 140.085 231.584 140.768 227.658 140.768ZM269.092 113.248H290.66V121.312H269.092V113.248ZM269.86 131.68H294.244V140H259.556V95.2H293.412V103.52H269.86V131.68ZM323.613 140.768C320.029 140.768 316.595 140.299 313.309 139.36C310.024 138.379 307.379 137.12 305.373 135.584L308.893 127.776C310.813 129.141 313.075 130.272 315.677 131.168C318.323 132.021 320.989 132.448 323.677 132.448C325.725 132.448 327.368 132.256 328.605 131.872C329.885 131.445 330.824 130.869 331.421 130.144C332.019 129.419 332.317 128.587 332.317 127.648C332.317 126.453 331.848 125.515 330.909 124.832C329.971 124.107 328.733 123.531 327.197 123.104C325.661 122.635 323.955 122.208 322.077 121.824C320.243 121.397 318.387 120.885 316.509 120.288C314.675 119.691 312.989 118.923 311.453 117.984C309.917 117.045 308.659 115.808 307.677 114.272C306.739 112.736 306.269 110.773 306.269 108.384C306.269 105.824 306.952 103.499 308.317 101.408C309.725 99.2747 311.816 97.5893 314.589 96.352C317.405 95.072 320.925 94.432 325.149 94.432C327.965 94.432 330.739 94.7733 333.469 95.456C336.2 96.096 338.611 97.0773 340.701 98.4L337.501 106.272C335.411 105.077 333.32 104.203 331.229 103.648C329.139 103.051 327.091 102.752 325.085 102.752C323.08 102.752 321.437 102.987 320.157 103.456C318.877 103.925 317.96 104.544 317.405 105.312C316.851 106.037 316.573 106.891 316.573 107.872C316.573 109.024 317.043 109.963 317.981 110.688C318.92 111.371 320.157 111.925 321.693 112.352C323.229 112.779 324.915 113.205 326.749 113.632C328.627 114.059 330.483 114.549 332.317 115.104C334.195 115.659 335.901 116.405 337.437 117.344C338.973 118.283 340.211 119.52 341.149 121.056C342.131 122.592 342.621 124.533 342.621 126.88C342.621 129.397 341.917 131.701 340.509 133.792C339.101 135.883 336.989 137.568 334.173 138.848C331.4 140.128 327.88 140.768 323.613 140.768ZM370.826 140.768C367.242 140.768 363.807 140.299 360.522 139.36C357.236 138.379 354.591 137.12 352.586 135.584L356.106 127.776C358.026 129.141 360.287 130.272 362.89 131.168C365.535 132.021 368.202 132.448 370.89 132.448C372.938 132.448 374.58 132.256 375.818 131.872C377.098 131.445 378.036 130.869 378.634 130.144C379.231 129.419 379.53 128.587 379.53 127.648C379.53 126.453 379.06 125.515 378.122 124.832C377.183 124.107 375.946 123.531 374.41 123.104C372.874 122.635 371.167 122.208 369.29 121.824C367.455 121.397 365.599 120.885 363.722 120.288C361.887 119.691 360.202 118.923 358.666 117.984C357.13 117.045 355.871 115.808 354.89 114.272C353.951 112.736 353.482 110.773 353.482 108.384C353.482 105.824 354.164 103.499 355.53 101.408C356.938 99.2747 359.028 97.5893 361.802 96.352C364.618 95.072 368.138 94.432 372.362 94.432C375.178 94.432 377.951 94.7733 380.682 95.456C383.412 96.096 385.823 97.0773 387.914 98.4L384.714 106.272C382.623 105.077 380.532 104.203 378.442 103.648C376.351 103.051 374.303 102.752 372.298 102.752C370.292 102.752 368.65 102.987 367.37 103.456C366.09 103.925 365.172 104.544 364.618 105.312C364.063 106.037 363.786 106.891 363.786 107.872C363.786 109.024 364.255 109.963 365.194 110.688C366.132 111.371 367.37 111.925 368.906 112.352C370.442 112.779 372.127 113.205 373.962 113.632C375.839 114.059 377.695 114.549 379.53 115.104C381.407 115.659 383.114 116.405 384.65 117.344C386.186 118.283 387.423 119.52 388.362 121.056C389.343 122.592 389.834 124.533 389.834 126.88C389.834 129.397 389.13 131.701 387.722 133.792C386.314 135.883 384.202 137.568 381.386 138.848C378.612 140.128 375.092 140.768 370.826 140.768Z" fill="black"/>
<path d="M144.866 61.04L143.786 63.839L143.793 63.8416L143.8 63.8441L144.866 61.04ZM137.058 56.176L134.98 58.3393L134.99 58.3494L135.001 58.3594L137.058 56.176ZM131.938 48.816L129.176 49.9876L129.184 50.0053L129.191 50.0228L131.938 48.816ZM131.938 30.384L129.191 29.1772L129.184 29.1947L129.176 29.2123L131.938 30.384ZM144.93 18.16L143.85 15.361L143.85 15.361L144.93 18.16ZM164.386 18.16L163.293 20.9537L163.3 20.9564L163.306 20.959L164.386 18.16ZM172.13 23.024L170.052 25.1873L170.062 25.1974L170.073 25.2074L172.13 23.024ZM177.314 30.384L174.567 31.5908L174.571 31.5986L174.574 31.6063L177.314 30.384ZM177.314 48.88L180.061 50.0868L180.064 50.0793L180.067 50.0717L177.314 48.88ZM172.13 56.24L174.186 58.4246L174.187 58.4234L172.13 56.24ZM164.386 61.04L163.306 58.241L163.3 58.2436L163.293 58.2463L164.386 61.04ZM160.162 52.912L159.048 50.1266L159.036 50.1315L159.023 50.1365L160.162 52.912ZM164.642 49.968L162.521 47.8467L162.521 47.8467L164.642 49.968ZM167.586 45.424L164.815 44.275L164.803 44.304L164.791 44.3334L167.586 45.424ZM167.586 33.776L164.791 34.8666L164.803 34.896L164.815 34.925L167.586 33.776ZM164.642 29.232L162.485 31.3171L162.503 31.3353L162.521 31.3533L164.642 29.232ZM160.226 26.288L159.112 29.0734L159.112 29.0734L160.226 26.288ZM149.09 26.288L147.976 23.5026L147.964 23.5075L147.951 23.5125L149.09 26.288ZM144.674 29.232L146.795 31.3533L146.795 31.3533L144.674 29.232ZM141.666 33.776L138.895 32.627L138.883 32.656L138.871 32.6854L141.666 33.776ZM141.666 45.424L138.863 46.492L138.878 46.5327L138.895 46.573L141.666 45.424ZM144.61 49.968L142.453 52.0531L142.471 52.0713L142.489 52.0893L144.61 49.968ZM149.09 52.912L147.976 55.6974L147.976 55.6974L149.09 52.912ZM154.722 59.768C151.511 59.768 148.591 59.2469 145.932 58.2359L143.8 63.8441C147.2 65.1371 150.85 65.768 154.722 65.768V59.768ZM145.946 58.241C143.303 57.2218 141.037 55.8034 139.115 53.9926L135.001 58.3594C137.516 60.7299 140.455 62.5542 143.786 63.839L145.946 58.241ZM139.136 54.0127C137.249 52.1994 135.767 50.0728 134.685 47.6092L129.191 50.0228C130.584 53.1912 132.515 55.9713 134.98 58.3393L139.136 54.0127ZM134.7 47.6443C133.676 45.2305 133.146 42.5611 133.146 39.6H127.146C127.146 43.2949 127.811 46.7695 129.176 49.9876L134.7 47.6443ZM133.146 39.6C133.146 36.6389 133.676 33.9695 134.7 31.5556L129.176 29.2123C127.811 32.4305 127.146 35.9051 127.146 39.6H133.146ZM134.685 31.5908C135.761 29.1399 137.256 27.0195 139.179 25.2074L135.065 20.8406C132.55 23.2098 130.589 25.9961 129.191 29.1772L134.685 31.5908ZM139.179 25.2074C141.101 23.3966 143.367 21.9782 146.01 20.959L143.85 15.361C140.519 16.6458 137.58 18.4701 135.065 20.8406L139.179 25.2074ZM146.01 20.959C148.621 19.9517 151.494 19.432 154.658 19.432V13.432C150.825 13.432 147.212 14.0643 143.85 15.361L146.01 20.959ZM154.658 19.432C157.87 19.432 160.737 19.9535 163.293 20.9537L165.479 15.3663C162.147 14.0625 158.529 13.432 154.658 13.432V19.432ZM163.306 20.959C165.944 21.9764 168.18 23.3893 170.052 25.1873L174.208 20.8607C171.728 18.4773 168.801 16.6476 165.466 15.361L163.306 20.959ZM170.073 25.2074C171.996 27.0195 173.491 29.1399 174.567 31.5908L180.061 29.1772C178.663 25.9961 176.702 23.2098 174.187 20.8406L170.073 25.2074ZM174.574 31.6063C175.622 33.9547 176.17 36.604 176.17 39.6H182.17C182.17 35.8547 181.481 32.36 180.054 29.1617L174.574 31.6063ZM176.17 39.6C176.17 42.5465 175.624 45.2311 174.561 47.6883L180.067 50.0717C181.478 46.8116 182.17 43.3095 182.17 39.6H176.17ZM174.567 47.6732C173.491 50.1241 171.996 52.2445 170.073 54.0566L174.187 58.4234C176.702 56.0542 178.663 53.2679 180.061 50.0868L174.567 47.6732ZM170.074 54.0554C168.2 55.8188 165.957 57.2186 163.306 58.241L165.466 63.839C168.788 62.5574 171.708 60.7572 174.186 58.4246L170.074 54.0554ZM163.293 58.2463C160.732 59.2481 157.886 59.768 154.722 59.768V65.768C158.555 65.768 162.152 65.1359 165.479 63.8337L163.293 58.2463ZM154.658 56.936C157.009 56.936 159.236 56.5345 161.301 55.6875L159.023 50.1365C157.76 50.6548 156.318 50.936 154.658 50.936V56.936ZM161.276 55.6974C163.354 54.8663 165.192 53.6611 166.763 52.0893L162.521 47.8467C161.532 48.8349 160.383 49.5924 159.048 50.1266L161.276 55.6974ZM166.763 52.0893C168.348 50.505 169.553 48.6356 170.381 46.5146L164.791 44.3334C164.254 45.7111 163.496 46.871 162.521 47.8467L166.763 52.0893ZM170.357 46.573C171.252 44.4162 171.674 42.0779 171.674 39.6H165.674C165.674 41.3887 165.371 42.9332 164.815 44.275L170.357 46.573ZM171.674 39.6C171.674 37.1221 171.252 34.7838 170.357 32.627L164.815 34.925C165.371 36.2668 165.674 37.8113 165.674 39.6H171.674ZM170.381 32.6854C169.553 30.5644 168.348 28.695 166.763 27.1107L162.521 31.3533C163.496 32.329 164.254 33.4889 164.791 34.8666L170.381 32.6854ZM166.799 27.1469C165.258 25.5525 163.427 24.3372 161.34 23.5026L159.112 29.0734C160.438 29.6041 161.552 30.3515 162.485 31.3171L166.799 27.1469ZM161.34 23.5026C159.248 22.6658 157.01 22.264 154.658 22.264V28.264C156.317 28.264 157.791 28.5449 159.112 29.0734L161.34 23.5026ZM154.658 22.264C152.306 22.264 150.068 22.6658 147.976 23.5026L150.204 29.0734C151.525 28.5449 152.999 28.264 154.658 28.264V22.264ZM147.951 23.5125C145.917 24.347 144.112 25.5516 142.553 27.1107L146.795 31.3533C147.796 30.3524 148.935 29.5943 150.229 29.0635L147.951 23.5125ZM142.553 27.1107C140.982 28.6818 139.764 30.5311 138.895 32.627L144.437 34.925C145.019 33.5222 145.806 32.3422 146.795 31.3533L142.553 27.1107ZM138.871 32.6854C138.036 34.8263 137.642 37.1439 137.642 39.6H143.642C143.642 37.7895 143.931 36.2243 144.461 34.8666L138.871 32.6854ZM137.642 39.6C137.642 42.0226 138.039 44.3294 138.863 46.492L144.469 44.356C143.928 42.9346 143.642 41.3587 143.642 39.6H137.642ZM138.895 46.573C139.755 48.6478 140.938 50.4855 142.453 52.0531L146.767 47.8829C145.808 46.8905 145.028 45.6989 144.437 44.275L138.895 46.573ZM142.489 52.0893C144.06 53.6611 145.898 54.8663 147.976 55.6974L150.204 50.1266C148.869 49.5924 147.72 48.8349 146.731 47.8467L142.489 52.0893ZM147.976 55.6974C150.068 56.5342 152.306 56.936 154.658 56.936V50.936C152.999 50.936 151.525 50.6551 150.204 50.1266L147.976 55.6974ZM198.354 57.456L200.463 55.322L200.463 55.322L198.354 57.456ZM192.978 17.2V14.2H189.978V17.2H192.978ZM203.346 17.2H206.346V14.2H203.346V17.2ZM205.97 51.12L203.775 53.1652L203.775 53.1652L205.97 51.12ZM220.69 51.12L222.885 53.1652L222.885 53.1652L220.69 51.12ZM223.314 17.2V14.2H220.314V17.2H223.314ZM233.554 17.2H236.554V14.2H233.554V17.2ZM228.178 57.456L230.287 59.59L230.287 59.59L228.178 57.456ZM213.266 59.768C207.481 59.768 203.347 58.1725 200.463 55.322L196.245 59.59C200.529 63.8221 206.336 65.768 213.266 65.768V59.768ZM200.463 55.322C197.608 52.501 195.978 48.3112 195.978 42.288H189.978C189.978 49.4062 191.932 55.3284 196.245 59.59L200.463 55.322ZM195.978 42.288V17.2H189.978V42.288H195.978ZM192.978 20.2H203.346V14.2H192.978V20.2ZM200.346 17.2V41.904H206.346V17.2H200.346ZM200.346 41.904C200.346 46.4584 201.258 50.4639 203.775 53.1652L208.165 49.0748C207.183 48.0214 206.346 45.8829 206.346 41.904H200.346ZM203.775 53.1652C206.219 55.7874 209.546 56.936 213.33 56.936V50.936C210.799 50.936 209.22 50.2073 208.165 49.0748L203.775 53.1652ZM213.33 56.936C217.114 56.936 220.441 55.7874 222.885 53.1652L218.495 49.0748C217.44 50.2073 215.861 50.936 213.33 50.936V56.936ZM222.885 53.1652C225.402 50.4639 226.314 46.4584 226.314 41.904H220.314C220.314 45.8829 219.477 48.0214 218.495 49.0748L222.885 53.1652ZM226.314 41.904V17.2H220.314V41.904H226.314ZM223.314 20.2H233.554V14.2H223.314V20.2ZM230.554 17.2V42.288H236.554V17.2H230.554ZM230.554 42.288C230.554 48.3112 228.924 52.501 226.069 55.322L230.287 59.59C234.6 55.3284 236.554 49.4062 236.554 42.288H230.554ZM226.069 55.322C223.185 58.1725 219.051 59.768 213.266 59.768V65.768C220.196 65.768 226.003 63.8221 230.287 59.59L226.069 55.322ZM250.2 62H247.2V65H250.2V62ZM250.2 17.2V14.2H247.2V17.2H250.2ZM279.96 19.184L278.715 21.9137L278.732 21.9213L278.749 21.9288L279.96 19.184ZM286.68 24.752L284.163 26.3854L284.163 26.3854L286.68 24.752ZM286.68 42.096L289.183 43.7498L289.189 43.7396L289.196 43.7294L286.68 42.096ZM279.96 47.6L281.17 50.3448L281.17 50.3448L279.96 47.6ZM255.96 49.52L253.853 47.3839L248.645 52.52H255.96V49.52ZM260.568 44.976H263.568V37.8044L258.461 42.8399L260.568 44.976ZM260.568 62V65H263.568V62H260.568ZM278.68 62L276.209 63.7021L277.103 65H278.68V62ZM267.48 45.744V42.744H261.769L265.009 47.4461L267.48 45.744ZM278.552 45.744L281.013 44.0288L280.118 42.744H278.552V45.744ZM289.88 62V65H295.627L292.341 60.2848L289.88 62ZM260.568 46.128L258.39 48.1912L263.568 53.6567V46.128H260.568ZM255.96 41.264V38.264H248.985L253.782 43.3272L255.96 41.264ZM276.184 39.216L278.146 41.4851L278.163 41.4701L278.18 41.4549L276.184 39.216ZM255.96 25.648L253.768 23.599L249.047 28.648H255.96V25.648ZM260.568 20.72H263.568V13.1192L258.376 18.671L260.568 20.72ZM253.2 62V17.2H247.2V62H253.2ZM250.2 20.2H269.592V14.2H250.2V20.2ZM269.592 20.2C273.28 20.2 276.292 20.8089 278.715 21.9137L281.204 16.4543C277.825 14.9138 273.924 14.2 269.592 14.2V20.2ZM278.749 21.9288C281.168 22.9962 282.932 24.4886 284.163 26.3854L289.196 23.1186C287.27 20.1514 284.554 17.9318 281.17 16.4392L278.749 21.9288ZM284.163 26.3854C285.378 28.2562 286.048 30.5688 286.048 33.456H292.048C292.048 29.6019 291.139 26.1118 289.196 23.1186L284.163 26.3854ZM286.048 33.456C286.048 36.2921 285.381 38.5857 284.163 40.4626L289.196 43.7294C291.135 40.7423 292.048 37.2759 292.048 33.456H286.048ZM284.177 40.4422C282.949 42.3008 281.182 43.7817 278.749 44.8552L281.17 50.3448C284.54 48.8583 287.253 46.6699 289.183 43.7498L284.177 40.4422ZM278.749 44.8552C276.316 45.9287 273.292 46.52 269.592 46.52V52.52C273.913 52.52 277.801 51.8313 281.17 50.3448L278.749 44.8552ZM269.592 46.52H255.96V52.52H269.592V46.52ZM258.066 51.6561L262.674 47.1121L258.461 42.8399L253.853 47.3839L258.066 51.6561ZM257.568 44.976V62H263.568V44.976H257.568ZM260.568 59H250.2V65H260.568V59ZM281.15 60.2979L269.95 44.0419L265.009 47.4461L276.209 63.7021L281.15 60.2979ZM267.48 48.744H278.552V42.744H267.48V48.744ZM276.09 47.4592L287.418 63.7152L292.341 60.2848L281.013 44.0288L276.09 47.4592ZM289.88 59H278.68V65H289.88V59ZM262.745 44.0648L258.137 39.2008L253.782 43.3272L258.39 48.1912L262.745 44.0648ZM255.96 44.264H269.016V38.264H255.96V44.264ZM269.016 44.264C272.568 44.264 275.796 43.5172 278.146 41.4851L274.221 36.9469C273.413 37.6455 271.863 38.264 269.016 38.264V44.264ZM278.18 41.4549C280.496 39.3899 281.552 36.6017 281.552 33.456H275.552C275.552 35.1743 275.029 36.2261 274.187 36.9771L278.18 41.4549ZM281.552 33.456C281.552 30.2881 280.507 27.469 278.146 25.4269L274.221 29.9651C275.017 30.6536 275.552 31.6745 275.552 33.456H281.552ZM278.146 25.4269C275.796 23.3948 272.568 22.648 269.016 22.648V28.648C271.863 28.648 273.413 29.2665 274.221 29.9651L278.146 25.4269ZM269.016 22.648H255.96V28.648H269.016V22.648ZM258.151 27.697L262.759 22.769L258.376 18.671L253.768 23.599L258.151 27.697ZM257.568 20.72V46.128H263.568V20.72H257.568ZM39.7058 140H36.7058V143H39.7058V140ZM39.7058 95.2V92.2H36.7058V95.2H39.7058ZM69.4658 97.184L68.2213 99.9137L68.238 99.9213L68.2548 99.9288L69.4658 97.184ZM76.1858 102.752L73.6694 104.385L73.6694 104.385L76.1858 102.752ZM69.4658 125.728L70.6767 128.473L70.6935 128.465L70.7102 128.458L69.4658 125.728ZM45.4658 127.648L43.3299 125.541L38.2932 130.648H45.4658V127.648ZM50.0738 122.976H53.0738V115.662L47.9379 120.869L50.0738 122.976ZM50.0738 140V143H53.0738V140H50.0738ZM50.0738 124.128L47.8825 126.177L53.0738 131.729V124.128H50.0738ZM45.4658 119.2V116.2H38.5534L43.2745 121.249L45.4658 119.2ZM45.4658 103.648L43.2745 101.599L38.5534 106.648H45.4658V103.648ZM50.0738 98.72H53.0738V91.1192L47.8825 96.671L50.0738 98.72ZM42.7058 140V95.2H36.7058V140H42.7058ZM39.7058 98.2H59.0978V92.2H39.7058V98.2ZM59.0978 98.2C62.7863 98.2 65.7977 98.8089 68.2213 99.9137L70.7102 94.4543C67.3311 92.9138 63.4305 92.2 59.0978 92.2V98.2ZM68.2548 99.9288C70.6743 100.996 72.4382 102.489 73.6694 104.385L78.7021 101.119C76.776 98.1514 74.0599 95.9318 70.6767 94.4392L68.2548 99.9288ZM73.6694 104.385C74.8838 106.256 75.5538 108.569 75.5538 111.456H81.5538C81.5538 107.602 80.6451 104.112 78.7021 101.119L73.6694 104.385ZM75.5538 111.456C75.5538 114.292 74.8877 116.586 73.6694 118.463L78.7021 121.729C80.6411 118.742 81.5538 115.276 81.5538 111.456H75.5538ZM73.6694 118.463C72.4324 120.368 70.6567 121.888 68.2213 122.998L70.7102 128.458C74.0775 126.923 76.7818 124.688 78.7021 121.729L73.6694 118.463ZM68.2548 122.983C65.8218 124.057 62.798 124.648 59.0978 124.648V130.648C63.4188 130.648 67.3071 129.959 70.6767 128.473L68.2548 122.983ZM59.0978 124.648H45.4658V130.648H59.0978V124.648ZM47.6017 129.755L52.2097 125.083L47.9379 120.869L43.3299 125.541L47.6017 129.755ZM47.0738 122.976V140H53.0738V122.976H47.0738ZM50.0738 137H39.7058V143H50.0738V137ZM52.265 122.079L47.657 117.151L43.2745 121.249L47.8825 126.177L52.265 122.079ZM45.4658 122.2H58.5218V116.2H45.4658V122.2ZM58.5218 122.2C62.0738 122.2 65.3026 121.453 67.6522 119.421L63.7273 114.883C62.9195 115.582 61.3697 116.2 58.5218 116.2V122.2ZM67.6522 119.421C70.0013 117.389 71.0578 114.6 71.0578 111.456H65.0578C65.0578 113.176 64.5355 114.184 63.7273 114.883L67.6522 119.421ZM71.0578 111.456C71.0578 108.288 70.0134 105.469 67.6522 103.427L63.7273 107.965C64.5234 108.654 65.0578 109.675 65.0578 111.456H71.0578ZM67.6522 103.427C65.3026 101.395 62.0738 100.648 58.5218 100.648V106.648C61.3697 106.648 62.9195 107.266 63.7273 107.965L67.6522 103.427ZM58.5218 100.648H45.4658V106.648H58.5218V100.648ZM47.657 105.697L52.265 100.769L47.8825 96.671L43.2745 101.599L47.657 105.697ZM47.0738 98.72V124.128H53.0738V98.72H47.0738ZM92.3558 140H89.3558V143H92.3558V140ZM92.3558 95.2V92.2H89.3558V95.2H92.3558ZM122.116 97.184L120.871 99.9137L120.888 99.9213L120.905 99.9288L122.116 97.184ZM128.836 102.752L126.319 104.385L126.319 104.385L128.836 102.752ZM128.836 120.096L131.339 121.75L131.345 121.74L131.352 121.729L128.836 120.096ZM122.116 125.6L123.327 128.345L123.327 128.345L122.116 125.6ZM98.1158 127.52L96.0093 125.384L90.8009 130.52H98.1158V127.52ZM102.724 122.976H105.724V115.804L100.617 120.84L102.724 122.976ZM102.724 140V143H105.724V140H102.724ZM120.836 140L118.365 141.702L119.26 143H120.836V140ZM109.636 123.744V120.744H103.926L107.165 125.446L109.636 123.744ZM120.708 123.744L123.169 122.029L122.274 120.744H120.708V123.744ZM132.036 140V143H137.783L134.497 138.285L132.036 140ZM102.724 124.128L100.546 126.191L105.724 131.657V124.128H102.724ZM98.1158 119.264V116.264H91.1411L95.9379 121.327L98.1158 119.264ZM118.34 117.216L120.302 119.485L120.32 119.47L120.337 119.455L118.34 117.216ZM98.1158 103.648L95.9245 101.599L91.2034 106.648H98.1158V103.648ZM102.724 98.72H105.724V91.1192L100.532 96.671L102.724 98.72ZM95.3558 140V95.2H89.3558V140H95.3558ZM92.3558 98.2H111.748V92.2H92.3558V98.2ZM111.748 98.2C115.436 98.2 118.448 98.8089 120.871 99.9137L123.36 94.4543C119.981 92.9138 116.081 92.2 111.748 92.2V98.2ZM120.905 99.9288C123.324 100.996 125.088 102.489 126.319 104.385L131.352 101.119C129.426 98.1514 126.71 95.9318 123.327 94.4392L120.905 99.9288ZM126.319 104.385C127.534 106.256 128.204 108.569 128.204 111.456H134.204C134.204 107.602 133.295 104.112 131.352 101.119L126.319 104.385ZM128.204 111.456C128.204 114.292 127.538 116.586 126.319 118.463L131.352 121.729C133.291 118.742 134.204 115.276 134.204 111.456H128.204ZM126.333 118.442C125.105 120.301 123.338 121.782 120.905 122.855L123.327 128.345C126.696 126.858 129.409 124.67 131.339 121.75L126.333 118.442ZM120.905 122.855C118.472 123.929 115.448 124.52 111.748 124.52V130.52C116.069 130.52 119.957 129.831 123.327 128.345L120.905 122.855ZM111.748 124.52H98.1158V130.52H111.748V124.52ZM100.222 129.656L104.83 125.112L100.617 120.84L96.0093 125.384L100.222 129.656ZM99.7238 122.976V140H105.724V122.976H99.7238ZM102.724 137H92.3558V143H102.724V137ZM123.306 138.298L112.106 122.042L107.165 125.446L118.365 141.702L123.306 138.298ZM109.636 126.744H120.708V120.744H109.636V126.744ZM118.246 125.459L129.574 141.715L134.497 138.285L123.169 122.029L118.246 125.459ZM132.036 137H120.836V143H132.036V137ZM104.902 122.065L100.294 117.201L95.9379 121.327L100.546 126.191L104.902 122.065ZM98.1158 122.264H111.172V116.264H98.1158V122.264ZM111.172 122.264C114.724 122.264 117.953 121.517 120.302 119.485L116.377 114.947C115.57 115.646 114.02 116.264 111.172 116.264V122.264ZM120.337 119.455C122.652 117.39 123.708 114.602 123.708 111.456H117.708C117.708 113.174 117.185 114.226 116.343 114.977L120.337 119.455ZM123.708 111.456C123.708 108.288 122.663 105.469 120.302 103.427L116.377 107.965C117.173 108.654 117.708 109.675 117.708 111.456H123.708ZM120.302 103.427C117.953 101.395 114.724 100.648 111.172 100.648V106.648C114.02 106.648 115.57 107.266 116.377 107.965L120.302 103.427ZM111.172 100.648H98.1158V106.648H111.172V100.648ZM100.307 105.697L104.915 100.769L100.532 96.671L95.9245 101.599L100.307 105.697ZM99.7238 98.72V124.128H105.724V98.72H99.7238ZM157.722 139.04L156.643 141.839L156.649 141.842L156.656 141.844L157.722 139.04ZM149.914 134.176L147.836 136.339L147.846 136.349L147.857 136.359L149.914 134.176ZM144.794 126.816L142.033 127.988L142.04 128.005L142.048 128.023L144.794 126.816ZM144.794 108.384L142.048 107.177L142.04 107.195L142.033 107.212L144.794 108.384ZM157.786 96.16L156.707 93.361L156.707 93.361L157.786 96.16ZM177.242 96.16L176.149 98.9537L176.156 98.9564L176.163 98.959L177.242 96.16ZM184.986 101.024L182.908 103.187L182.918 103.197L182.929 103.207L184.986 101.024ZM190.17 108.384L187.424 109.591L187.427 109.599L187.431 109.606L190.17 108.384ZM190.17 126.88L192.917 128.087L192.92 128.079L192.923 128.072L190.17 126.88ZM184.986 134.24L187.042 136.425L187.044 136.423L184.986 134.24ZM177.242 139.04L176.163 136.241L176.156 136.244L176.149 136.246L177.242 139.04ZM173.018 130.912L171.904 128.127L171.892 128.131L171.88 128.136L173.018 130.912ZM177.498 127.968L175.377 125.847L175.377 125.847L177.498 127.968ZM180.442 123.424L177.671 122.275L177.659 122.304L177.648 122.333L180.442 123.424ZM180.442 111.776L177.648 112.867L177.659 112.896L177.671 112.925L180.442 111.776ZM177.498 107.232L175.341 109.317L175.359 109.335L175.377 109.353L177.498 107.232ZM173.082 104.288L171.968 107.073L171.968 107.073L173.082 104.288ZM161.946 104.288L160.832 101.503L160.82 101.507L160.808 101.512L161.946 104.288ZM157.53 107.232L159.652 109.353L159.652 109.353L157.53 107.232ZM154.522 111.776L151.751 110.627L151.739 110.656L151.728 110.685L154.522 111.776ZM154.522 123.424L151.719 124.492L151.734 124.533L151.751 124.573L154.522 123.424ZM157.466 127.968L155.309 130.053L155.327 130.071L155.345 130.089L157.466 127.968ZM161.946 130.912L160.832 133.697L160.832 133.697L161.946 130.912ZM167.578 137.768C164.367 137.768 161.447 137.247 158.789 136.236L156.656 141.844C160.056 143.137 163.706 143.768 167.578 143.768V137.768ZM158.802 136.241C156.159 135.222 153.893 133.803 151.972 131.993L147.857 136.359C150.373 138.73 153.312 140.554 156.643 141.839L158.802 136.241ZM151.993 132.013C150.105 130.199 148.623 128.073 147.541 125.609L142.048 128.023C143.44 131.191 145.371 133.971 147.836 136.339L151.993 132.013ZM147.556 125.644C146.532 123.23 146.002 120.561 146.002 117.6H140.002C140.002 121.295 140.667 124.77 142.033 127.988L147.556 125.644ZM146.002 117.6C146.002 114.639 146.532 111.97 147.556 109.556L142.033 107.212C140.667 110.43 140.002 113.905 140.002 117.6H146.002ZM147.541 109.591C148.618 107.14 150.113 105.02 152.036 103.207L147.921 98.8406C145.407 101.21 143.445 103.996 142.048 107.177L147.541 109.591ZM152.036 103.207C153.957 101.397 156.223 99.9782 158.866 98.959L156.707 93.361C153.376 94.6458 150.437 96.4701 147.921 98.8406L152.036 103.207ZM158.866 98.959C161.477 97.9517 164.35 97.432 167.514 97.432V91.432C163.681 91.432 160.068 92.0643 156.707 93.361L158.866 98.959ZM167.514 97.432C170.726 97.432 173.593 97.9535 176.149 98.9537L178.335 93.3663C175.004 92.0625 171.385 91.432 167.514 91.432V97.432ZM176.163 98.959C178.8 99.9764 181.036 101.389 182.908 103.187L187.065 98.8607C184.584 96.4773 181.657 94.6476 178.322 93.361L176.163 98.959ZM182.929 103.207C184.852 105.02 186.347 107.14 187.424 109.591L192.917 107.177C191.519 103.996 189.558 101.21 187.044 98.8406L182.929 103.207ZM187.431 109.606C188.478 111.955 189.026 114.604 189.026 117.6H195.026C195.026 113.855 194.337 110.36 192.91 107.162L187.431 109.606ZM189.026 117.6C189.026 120.547 188.481 123.231 187.417 125.688L192.923 128.072C194.335 124.812 195.026 121.309 195.026 117.6H189.026ZM187.424 125.673C186.347 128.124 184.852 130.244 182.929 132.057L187.044 136.423C189.558 134.054 191.519 131.268 192.917 128.087L187.424 125.673ZM182.93 132.055C181.057 133.819 178.813 135.219 176.163 136.241L178.322 141.839C181.645 140.557 184.564 138.757 187.042 136.425L182.93 132.055ZM176.149 136.246C173.589 137.248 170.743 137.768 167.578 137.768V143.768C171.411 143.768 175.008 143.136 178.335 141.834L176.149 136.246ZM167.514 134.936C169.865 134.936 172.092 134.535 174.157 133.688L171.88 128.136C170.616 128.655 169.174 128.936 167.514 128.936V134.936ZM174.132 133.697C176.21 132.866 178.048 131.661 179.62 130.089L175.377 125.847C174.389 126.835 173.24 127.592 171.904 128.127L174.132 133.697ZM179.62 130.089C181.204 128.505 182.409 126.636 183.237 124.515L177.648 122.333C177.11 123.711 176.353 124.871 175.377 125.847L179.62 130.089ZM183.213 124.573C184.108 122.416 184.53 120.078 184.53 117.6H178.53C178.53 119.389 178.227 120.933 177.671 122.275L183.213 124.573ZM184.53 117.6C184.53 115.122 184.108 112.784 183.213 110.627L177.671 112.925C178.227 114.267 178.53 115.811 178.53 117.6H184.53ZM183.237 110.685C182.409 108.564 181.204 106.695 179.62 105.111L175.377 109.353C176.353 110.329 177.11 111.489 177.648 112.867L183.237 110.685ZM179.655 105.147C178.114 103.553 176.283 102.337 174.196 101.503L171.968 107.073C173.295 107.604 174.408 108.351 175.341 109.317L179.655 105.147ZM174.196 101.503C172.104 100.666 169.866 100.264 167.514 100.264V106.264C169.173 106.264 170.647 106.545 171.968 107.073L174.196 101.503ZM167.514 100.264C165.162 100.264 162.924 100.666 160.832 101.503L163.06 107.073C164.382 106.545 165.856 106.264 167.514 106.264V100.264ZM160.808 101.512C158.774 102.347 156.968 103.552 155.409 105.111L159.652 109.353C160.652 108.352 161.791 107.594 163.085 107.064L160.808 101.512ZM155.409 105.111C153.838 106.682 152.62 108.531 151.751 110.627L157.293 112.925C157.875 111.522 158.663 110.342 159.652 109.353L155.409 105.111ZM151.728 110.685C150.892 112.826 150.498 115.144 150.498 117.6H156.498C156.498 115.789 156.787 114.224 157.317 112.867L151.728 110.685ZM150.498 117.6C150.498 120.023 150.895 122.329 151.719 124.492L157.326 122.356C156.784 120.935 156.498 119.359 156.498 117.6H150.498ZM151.751 124.573C152.611 126.648 153.794 128.485 155.309 130.053L159.623 125.883C158.664 124.891 157.884 123.699 157.293 122.275L151.751 124.573ZM155.345 130.089C156.917 131.661 158.754 132.866 160.832 133.697L163.06 128.127C161.725 127.592 160.576 126.835 159.588 125.847L155.345 130.089ZM160.832 133.697C162.924 134.534 165.162 134.936 167.514 134.936V128.936C165.856 128.936 164.382 128.655 163.06 128.127L160.832 133.697ZM217.994 139.104L216.901 141.898L216.925 141.907L216.95 141.916L217.994 139.104ZM210.314 134.24L208.236 136.403L208.236 136.403L210.314 134.24ZM205.194 126.88L202.433 128.052L202.44 128.069L202.448 128.087L205.194 126.88ZM205.194 108.32L202.448 107.113L202.44 107.131L202.433 107.148L205.194 108.32ZM210.314 100.96L208.257 98.7766L208.246 98.7866L208.236 98.7967L210.314 100.96ZM218.058 96.16L219.116 98.9673L219.134 98.9606L219.151 98.9537L218.058 96.16ZM238.218 96.48L237.014 99.2276L237.036 99.2375L237.059 99.247L238.218 96.48ZM246.154 102.368L248.189 104.572L250.268 102.654L248.474 100.466L246.154 102.368ZM239.498 108.512L237.244 110.491L239.273 112.802L241.533 110.716L239.498 108.512ZM234.378 104.608L233.086 107.315L233.111 107.328L233.137 107.339L234.378 104.608ZM217.93 107.232L220.052 109.353L220.052 109.353L217.93 107.232ZM214.922 111.776L212.151 110.627L212.139 110.656L212.128 110.685L214.922 111.776ZM214.922 123.424L212.128 124.515L212.139 124.544L212.151 124.573L214.922 123.424ZM217.93 127.968L215.809 130.089L215.809 130.089L217.93 127.968ZM234.378 130.656L235.62 133.387L235.645 133.376L235.67 133.363L234.378 130.656ZM239.498 126.624L241.533 124.42L239.246 122.308L237.22 124.672L239.498 126.624ZM246.154 132.768L248.474 134.67L250.268 132.482L248.189 130.564L246.154 132.768ZM238.218 138.72L237.028 135.966L237.021 135.969L237.014 135.972L238.218 138.72ZM227.658 137.768C224.529 137.768 221.664 137.267 219.039 136.292L216.95 141.916C220.298 143.16 223.876 143.768 227.658 143.768V137.768ZM219.087 136.31C216.492 135.295 214.271 133.882 212.393 132.077L208.236 136.403C210.709 138.78 213.608 140.609 216.901 141.898L219.087 136.31ZM212.393 132.077C210.505 130.263 209.023 128.137 207.941 125.673L202.448 128.087C203.84 131.255 205.771 134.035 208.236 136.403L212.393 132.077ZM207.956 125.708C206.934 123.299 206.402 120.609 206.402 117.6H200.402C200.402 121.332 201.065 124.829 202.433 128.052L207.956 125.708ZM206.402 117.6C206.402 114.591 206.934 111.901 207.956 109.492L202.433 107.148C201.065 110.371 200.402 113.868 200.402 117.6H206.402ZM207.941 109.527C209.023 107.063 210.505 104.937 212.393 103.123L208.236 98.7967C205.771 101.165 203.84 103.945 202.448 107.113L207.941 109.527ZM212.372 103.143C214.292 101.333 216.531 99.9414 219.116 98.9673L217 93.3527C213.697 94.5973 210.773 96.4052 208.257 98.7766L212.372 103.143ZM219.151 98.9537C221.712 97.9519 224.558 97.432 227.722 97.432V91.432C223.889 91.432 220.293 92.0641 216.965 93.3663L219.151 98.9537ZM227.722 97.432C231.249 97.432 234.329 98.0507 237.014 99.2276L239.423 93.7324C235.878 92.1786 231.961 91.432 227.722 91.432V97.432ZM237.059 99.247C239.773 100.384 242.017 102.053 243.834 104.27L248.474 100.466C246.025 97.4779 242.978 95.2215 239.377 93.713L237.059 99.247ZM244.119 100.164L237.463 106.308L241.533 110.716L248.189 104.572L244.119 100.164ZM241.753 106.533C239.972 104.505 237.931 102.928 235.62 101.877L233.137 107.339C234.58 107.995 235.952 109.02 237.244 110.491L241.753 106.533ZM235.67 101.901C233.363 100.799 230.87 100.264 228.234 100.264V106.264C230.036 106.264 231.639 106.625 233.086 107.315L235.67 101.901ZM228.234 100.264C225.813 100.264 223.518 100.66 221.384 101.493L223.565 107.083C224.929 106.55 226.475 106.264 228.234 106.264V100.264ZM221.384 101.493C219.263 102.321 217.393 103.526 215.809 105.111L220.052 109.353C221.027 108.378 222.187 107.62 223.565 107.083L221.384 101.493ZM215.809 105.111C214.238 106.682 213.02 108.531 212.151 110.627L217.693 112.925C218.275 111.522 219.063 110.342 220.052 109.353L215.809 105.111ZM212.128 110.685C211.292 112.826 210.898 115.144 210.898 117.6H216.898C216.898 115.789 217.187 114.224 217.717 112.867L212.128 110.685ZM210.898 117.6C210.898 120.056 211.292 122.374 212.128 124.515L217.717 122.333C217.187 120.976 216.898 119.411 216.898 117.6H210.898ZM212.151 124.573C213.02 126.669 214.238 128.518 215.809 130.089L220.052 125.847C219.063 124.858 218.275 123.678 217.693 122.275L212.151 124.573ZM215.809 130.089C217.393 131.674 219.263 132.879 221.384 133.707L223.565 128.117C222.187 127.58 221.027 126.822 220.052 125.847L215.809 130.089ZM221.384 133.707C223.518 134.54 225.813 134.936 228.234 134.936V128.936C226.475 128.936 224.929 128.65 223.565 128.117L221.384 133.707ZM228.234 134.936C230.848 134.936 233.323 134.431 235.62 133.387L233.137 127.925C231.678 128.588 230.058 128.936 228.234 128.936V134.936ZM235.67 133.363C237.973 132.264 240.004 130.643 241.776 128.576L237.22 124.672C235.92 126.189 234.538 127.256 233.086 127.949L235.67 133.363ZM237.463 128.828L244.119 134.972L248.189 130.564L241.533 124.42L237.463 128.828ZM243.834 130.866C242.011 133.091 239.756 134.787 237.028 135.966L239.409 141.474C242.995 139.923 246.031 137.651 248.474 134.67L243.834 130.866ZM237.014 135.972C234.333 137.148 231.232 137.768 227.658 137.768V143.768C231.935 143.768 235.874 143.023 239.423 141.468L237.014 135.972ZM269.092 113.248V110.248H266.092V113.248H269.092ZM290.66 113.248H293.66V110.248H290.66V113.248ZM290.66 121.312V124.312H293.66V121.312H290.66ZM269.092 121.312H266.092V124.312H269.092V121.312ZM269.86 131.68H266.86V134.68H269.86V131.68ZM294.244 131.68H297.244V128.68H294.244V131.68ZM294.244 140V143H297.244V140H294.244ZM259.556 140H256.556V143H259.556V140ZM259.556 95.2V92.2H256.556V95.2H259.556ZM293.412 95.2H296.412V92.2H293.412V95.2ZM293.412 103.52V106.52H296.412V103.52H293.412ZM269.86 103.52V100.52H266.86V103.52H269.86ZM269.092 116.248H290.66V110.248H269.092V116.248ZM287.66 113.248V121.312H293.66V113.248H287.66ZM290.66 118.312H269.092V124.312H290.66V118.312ZM272.092 121.312V113.248H266.092V121.312H272.092ZM269.86 134.68H294.244V128.68H269.86V134.68ZM291.244 131.68V140H297.244V131.68H291.244ZM294.244 137H259.556V143H294.244V137ZM262.556 140V95.2H256.556V140H262.556ZM259.556 98.2H293.412V92.2H259.556V98.2ZM290.412 95.2V103.52H296.412V95.2H290.412ZM293.412 100.52H269.86V106.52H293.412V100.52ZM266.86 103.52V131.68H272.86V103.52H266.86ZM313.309 139.36L312.451 142.235L312.468 142.24L312.485 142.245L313.309 139.36ZM305.373 135.584L302.638 134.351L301.661 136.519L303.549 137.966L305.373 135.584ZM308.893 127.776L310.632 125.331L307.658 123.216L306.158 126.543L308.893 127.776ZM315.677 131.168L314.701 134.005L314.728 134.014L314.756 134.023L315.677 131.168ZM328.605 131.872L329.494 134.737L329.524 134.728L329.554 134.718L328.605 131.872ZM331.421 130.144L329.105 128.237L329.105 128.237L331.421 130.144ZM330.909 124.832L329.075 127.206L329.109 127.233L329.145 127.258L330.909 124.832ZM327.197 123.104L326.321 125.973L326.357 125.984L326.394 125.995L327.197 123.104ZM322.077 121.824L321.398 124.746L321.437 124.755L321.476 124.763L322.077 121.824ZM316.509 120.288L315.58 123.141L315.59 123.144L315.6 123.147L316.509 120.288ZM311.453 117.984L309.889 120.544L309.889 120.544L311.453 117.984ZM307.677 114.272L305.117 115.836L305.133 115.862L305.149 115.887L307.677 114.272ZM308.317 101.408L305.813 99.7555L305.809 99.7615L305.805 99.7676L308.317 101.408ZM314.589 96.352L315.812 99.0917L315.821 99.0874L315.831 99.0831L314.589 96.352ZM333.469 95.456L332.742 98.3664L332.763 98.3718L332.785 98.3768L333.469 95.456ZM340.701 98.4L343.48 99.5297L344.425 97.2059L342.305 95.8648L340.701 98.4ZM337.501 106.272L336.013 108.877L338.989 110.578L340.28 107.402L337.501 106.272ZM331.229 103.648L330.405 106.533L330.432 106.54L330.46 106.548L331.229 103.648ZM320.157 103.456L319.124 100.639L319.124 100.639L320.157 103.456ZM317.405 105.312L319.788 107.134L319.813 107.102L319.837 107.068L317.405 105.312ZM317.981 110.688L316.147 113.062L316.181 113.089L316.217 113.114L317.981 110.688ZM321.693 112.352L320.89 115.243L320.89 115.243L321.693 112.352ZM326.749 113.632L326.07 116.554L326.077 116.556L326.084 116.557L326.749 113.632ZM332.317 115.104L331.449 117.976L331.458 117.978L331.467 117.981L332.317 115.104ZM337.437 117.344L339.002 114.784L339.002 114.784L337.437 117.344ZM341.149 121.056L338.589 122.62L338.605 122.646L338.621 122.671L341.149 121.056ZM340.509 133.792L342.998 135.468L342.998 135.468L340.509 133.792ZM334.173 138.848L332.932 136.117L332.924 136.12L332.916 136.124L334.173 138.848ZM323.613 137.768C320.294 137.768 317.138 137.334 314.133 136.475L312.485 142.245C316.051 143.263 319.764 143.768 323.613 143.768V137.768ZM314.168 136.485C311.115 135.574 308.83 134.453 307.197 133.202L303.549 137.966C305.927 139.787 308.933 141.184 312.451 142.235L314.168 136.485ZM308.108 136.817L311.628 129.009L306.158 126.543L302.638 134.351L308.108 136.817ZM307.155 130.221C309.344 131.778 311.871 133.03 314.701 134.005L316.654 128.331C314.278 127.514 312.282 126.505 310.632 125.331L307.155 130.221ZM314.756 134.023C317.689 134.969 320.666 135.448 323.677 135.448V129.448C321.312 129.448 318.956 129.074 316.598 128.313L314.756 134.023ZM323.677 135.448C325.873 135.448 327.852 135.247 329.494 134.737L327.716 129.007C326.884 129.265 325.577 129.448 323.677 129.448V135.448ZM329.554 134.718C331.148 134.187 332.657 133.362 333.737 132.051L329.105 128.237C328.99 128.377 328.623 128.704 327.657 129.026L329.554 134.718ZM333.737 132.051C334.776 130.789 335.317 129.283 335.317 127.648H329.317C329.317 127.89 329.261 128.048 329.105 128.237L333.737 132.051ZM335.317 127.648C335.317 125.527 334.415 123.672 332.674 122.406L329.145 127.258C329.21 127.306 329.245 127.341 329.26 127.359C329.275 127.376 329.28 127.385 329.282 127.39C329.284 127.394 329.292 127.41 329.299 127.445C329.307 127.481 329.317 127.546 329.317 127.648H335.317ZM332.744 122.458C331.412 121.429 329.789 120.71 328 120.213L326.394 125.995C327.677 126.351 328.529 126.784 329.075 127.206L332.744 122.458ZM328.074 120.235C326.432 119.733 324.632 119.284 322.678 118.885L321.476 124.763C323.278 125.132 324.891 125.536 326.321 125.973L328.074 120.235ZM322.757 118.902C321.003 118.494 319.224 118.004 317.419 117.429L315.6 123.147C317.549 123.767 319.482 124.301 321.398 124.746L322.757 118.902ZM317.438 117.435C315.81 116.905 314.34 116.232 313.018 115.424L309.889 120.544C311.638 121.613 313.539 122.476 315.58 123.141L317.438 117.435ZM313.018 115.424C311.875 114.726 310.945 113.814 310.205 112.657L305.149 115.887C306.373 117.802 307.959 119.364 309.889 120.544L313.018 115.424ZM310.237 112.708C309.666 111.773 309.269 110.397 309.269 108.384H303.269C303.269 111.149 303.811 113.699 305.117 115.836L310.237 112.708ZM309.269 108.384C309.269 106.391 309.791 104.638 310.829 103.048L305.805 99.7676C304.113 102.359 303.269 105.257 303.269 108.384H309.269ZM310.821 103.061C311.859 101.488 313.461 100.141 315.812 99.0917L313.367 93.6123C310.171 95.0381 307.591 97.0616 305.813 99.7555L310.821 103.061ZM315.831 99.0831C318.142 98.0326 321.206 97.432 325.149 97.432V91.432C320.644 91.432 316.669 92.1114 313.348 93.6209L315.831 99.0831ZM325.149 97.432C327.72 97.432 330.249 97.7433 332.742 98.3664L334.197 92.5456C331.228 91.8034 328.21 91.432 325.149 91.432V97.432ZM332.785 98.3768C335.233 98.9506 337.325 99.8137 339.097 100.935L342.305 95.8648C339.897 94.341 337.167 93.2414 334.154 92.5351L332.785 98.3768ZM337.922 97.2703L334.722 105.142L340.28 107.402L343.48 99.5297L337.922 97.2703ZM338.99 103.667C336.698 102.358 334.367 101.377 331.999 100.748L330.46 106.548C332.273 107.029 334.123 107.797 336.013 108.877L338.99 103.667ZM332.053 100.763C329.717 100.096 327.392 99.752 325.085 99.752V105.752C326.789 105.752 328.56 106.005 330.405 106.533L332.053 100.763ZM325.085 99.752C322.878 99.752 320.852 100.006 319.124 100.639L321.19 106.273C322.022 105.967 323.282 105.752 325.085 105.752V99.752ZM319.124 100.639C317.518 101.228 316.001 102.133 314.973 103.556L319.837 107.068C319.919 106.955 320.236 106.622 321.19 106.273L319.124 100.639ZM315.022 103.49C314.037 104.778 313.573 106.284 313.573 107.872H319.573C319.573 107.497 319.664 107.296 319.788 107.134L315.022 103.49ZM313.573 107.872C313.573 109.985 314.499 111.788 316.147 113.062L319.816 108.314C319.656 108.191 319.617 108.114 319.609 108.098C319.602 108.085 319.573 108.029 319.573 107.872H313.573ZM316.217 113.114C317.532 114.071 319.129 114.753 320.89 115.243L322.496 109.461C321.186 109.097 320.308 108.671 319.746 108.262L316.217 113.114ZM320.89 115.243C322.474 115.682 324.201 116.119 326.07 116.554L327.429 110.71C325.628 110.291 323.985 109.875 322.496 109.461L320.89 115.243ZM326.084 116.557C327.894 116.969 329.682 117.441 331.449 117.976L333.185 112.232C331.283 111.657 329.36 111.149 327.414 110.707L326.084 116.557ZM331.467 117.981C333.115 118.468 334.579 119.113 335.873 119.904L339.002 114.784C337.224 113.698 335.274 112.849 333.167 112.227L331.467 117.981ZM335.873 119.904C337.003 120.594 337.899 121.49 338.589 122.62L343.709 119.492C342.522 117.55 340.944 115.971 339.002 114.784L335.873 119.904ZM338.621 122.671C339.217 123.604 339.621 124.943 339.621 126.88H345.621C345.621 124.123 345.044 121.58 343.677 119.441L338.621 122.671ZM339.621 126.88C339.621 128.799 339.096 130.52 338.021 132.116L342.998 135.468C344.739 132.883 345.621 129.995 345.621 126.88H339.621ZM338.021 132.116C336.987 133.652 335.357 135.014 332.932 136.117L335.415 141.579C338.621 140.122 341.216 138.113 342.998 135.468L338.021 132.116ZM332.916 136.124C330.661 137.165 327.607 137.768 323.613 137.768V143.768C328.153 143.768 332.139 143.091 335.43 141.572L332.916 136.124ZM360.522 139.36L359.663 142.235L359.68 142.24L359.698 142.245L360.522 139.36ZM352.586 135.584L349.851 134.351L348.873 136.519L350.762 137.966L352.586 135.584ZM356.106 127.776L357.844 125.331L354.871 123.216L353.371 126.543L356.106 127.776ZM362.89 131.168L361.913 134.005L361.941 134.014L361.969 134.023L362.89 131.168ZM375.818 131.872L376.707 134.737L376.737 134.728L376.766 134.718L375.818 131.872ZM378.634 130.144L376.318 128.237L376.318 128.237L378.634 130.144ZM378.122 124.832L376.287 127.206L376.322 127.233L376.357 127.258L378.122 124.832ZM374.41 123.104L373.533 125.973L373.57 125.984L373.607 125.995L374.41 123.104ZM369.29 121.824L368.61 124.746L368.649 124.755L368.689 124.763L369.29 121.824ZM363.722 120.288L362.793 123.141L362.803 123.144L362.812 123.147L363.722 120.288ZM358.666 117.984L357.101 120.544L357.101 120.544L358.666 117.984ZM354.89 114.272L352.33 115.836L352.346 115.862L352.362 115.887L354.89 114.272ZM355.53 101.408L353.026 99.7555L353.022 99.7615L353.018 99.7676L355.53 101.408ZM361.802 96.352L363.024 99.0917L363.034 99.0874L363.043 99.0831L361.802 96.352ZM380.682 95.456L379.954 98.3664L379.976 98.3718L379.997 98.3768L380.682 95.456ZM387.914 98.4L390.693 99.5297L391.638 97.2059L389.518 95.8648L387.914 98.4ZM384.714 106.272L383.225 108.877L386.202 110.578L387.493 107.402L384.714 106.272ZM378.442 103.648L377.618 106.533L377.645 106.54L377.672 106.548L378.442 103.648ZM367.37 103.456L366.337 100.639L366.337 100.639L367.37 103.456ZM364.618 105.312L367.001 107.134L367.026 107.102L367.05 107.068L364.618 105.312ZM365.194 110.688L363.359 113.062L363.394 113.089L363.429 113.114L365.194 110.688ZM368.906 112.352L368.103 115.243L368.103 115.243L368.906 112.352ZM373.962 113.632L373.282 116.554L373.29 116.556L373.297 116.557L373.962 113.632ZM379.53 115.104L378.662 117.976L378.671 117.978L378.68 117.981L379.53 115.104ZM384.65 117.344L386.214 114.784L386.214 114.784L384.65 117.344ZM388.362 121.056L385.802 122.62L385.818 122.646L385.834 122.671L388.362 121.056ZM387.722 133.792L390.21 135.468L390.21 135.468L387.722 133.792ZM381.386 138.848L380.144 136.117L380.136 136.12L380.129 136.124L381.386 138.848ZM370.826 137.768C367.507 137.768 364.35 137.334 361.346 136.475L359.698 142.245C363.264 143.263 366.977 143.768 370.826 143.768V137.768ZM361.38 136.485C358.327 135.574 356.043 134.453 354.41 133.202L350.762 137.966C353.139 139.787 356.145 141.184 359.663 142.235L361.38 136.485ZM355.321 136.817L358.841 129.009L353.371 126.543L349.851 134.351L355.321 136.817ZM354.367 130.221C356.557 131.778 359.084 133.03 361.913 134.005L363.866 128.331C361.491 127.514 359.495 126.505 357.844 125.331L354.367 130.221ZM361.969 134.023C364.901 134.969 367.879 135.448 370.89 135.448V129.448C368.525 129.448 366.169 129.074 363.811 128.313L361.969 134.023ZM370.89 135.448C373.086 135.448 375.065 135.247 376.707 134.737L374.929 129.007C374.096 129.265 372.79 129.448 370.89 129.448V135.448ZM376.766 134.718C378.36 134.187 379.87 133.362 380.95 132.051L376.318 128.237C376.203 128.377 375.835 128.704 374.869 129.026L376.766 134.718ZM380.95 132.051C381.989 130.789 382.53 129.283 382.53 127.648H376.53C376.53 127.89 376.473 128.048 376.318 128.237L380.95 132.051ZM382.53 127.648C382.53 125.527 381.628 123.672 379.886 122.406L376.357 127.258C376.423 127.306 376.457 127.341 376.473 127.359C376.487 127.376 376.492 127.385 376.494 127.39C376.497 127.394 376.504 127.41 376.512 127.445C376.52 127.481 376.53 127.546 376.53 127.648H382.53ZM379.956 122.458C378.624 121.429 377.002 120.71 375.213 120.213L373.607 125.995C374.89 126.351 375.742 126.784 376.287 127.206L379.956 122.458ZM375.286 120.235C373.644 119.733 371.844 119.284 369.891 118.885L368.689 124.763C370.49 125.132 372.103 125.536 373.533 125.973L375.286 120.235ZM369.969 118.902C368.216 118.494 366.436 118.004 364.631 117.429L362.812 123.147C364.762 123.767 366.695 124.301 368.61 124.746L369.969 118.902ZM364.651 117.435C363.023 116.905 361.553 116.232 360.23 115.424L357.101 120.544C358.851 121.613 360.752 122.476 362.793 123.141L364.651 117.435ZM360.23 115.424C359.088 114.726 358.157 113.814 357.418 112.657L352.362 115.887C353.585 117.802 355.172 119.364 357.101 120.544L360.23 115.424ZM357.45 112.708C356.878 111.773 356.482 110.397 356.482 108.384H350.482C350.482 111.149 351.024 113.699 352.33 115.836L357.45 112.708ZM356.482 108.384C356.482 106.391 357.003 104.638 358.042 103.048L353.018 99.7676C351.326 102.359 350.482 105.257 350.482 108.384H356.482ZM358.034 103.061C359.072 101.488 360.673 100.141 363.024 99.0917L360.579 93.6123C357.384 95.0381 354.804 97.0616 353.026 99.7555L358.034 103.061ZM363.043 99.0831C365.354 98.0326 368.419 97.432 372.362 97.432V91.432C367.857 91.432 363.881 92.1114 360.56 93.6209L363.043 99.0831ZM372.362 97.432C374.933 97.432 377.462 97.7433 379.954 98.3664L381.409 92.5456C378.441 91.8034 375.423 91.432 372.362 91.432V97.432ZM379.997 98.3768C382.445 98.9506 384.537 99.8137 386.31 100.935L389.518 95.8648C387.109 94.341 384.38 93.2414 381.366 92.5351L379.997 98.3768ZM385.135 97.2703L381.935 105.142L387.493 107.402L390.693 99.5297L385.135 97.2703ZM386.202 103.667C383.911 102.358 381.58 101.377 379.211 100.748L377.672 106.548C379.485 107.029 381.335 107.797 383.225 108.877L386.202 103.667ZM379.266 100.763C376.93 100.096 374.604 99.752 372.298 99.752V105.752C374.002 105.752 375.773 106.005 377.618 106.533L379.266 100.763ZM372.298 99.752C370.091 99.752 368.065 100.006 366.337 100.639L368.403 106.273C369.235 105.967 370.494 105.752 372.298 105.752V99.752ZM366.337 100.639C364.731 101.228 363.213 102.133 362.186 103.556L367.05 107.068C367.132 106.955 367.449 106.622 368.403 106.273L366.337 100.639ZM362.235 103.49C361.249 104.778 360.786 106.284 360.786 107.872H366.786C366.786 107.497 366.877 107.296 367.001 107.134L362.235 103.49ZM360.786 107.872C360.786 109.985 361.711 111.788 363.359 113.062L367.028 108.314C366.869 108.191 366.829 108.114 366.821 108.098C366.814 108.085 366.786 108.029 366.786 107.872H360.786ZM363.429 113.114C364.744 114.071 366.341 114.753 368.103 115.243L369.709 109.461C368.398 109.097 367.521 108.671 366.958 108.262L363.429 113.114ZM368.103 115.243C369.686 115.682 371.413 116.119 373.282 116.554L374.641 110.71C372.841 110.291 371.197 109.875 369.709 109.461L368.103 115.243ZM373.297 116.557C375.106 116.969 376.894 117.441 378.662 117.976L380.398 112.232C378.496 111.657 376.572 111.149 374.627 110.707L373.297 116.557ZM378.68 117.981C380.328 118.468 381.791 119.113 383.085 119.904L386.214 114.784C384.436 113.698 382.486 112.849 380.38 112.227L378.68 117.981ZM383.085 119.904C384.215 120.594 385.111 121.49 385.802 122.62L390.922 119.492C389.735 117.55 388.156 115.971 386.214 114.784L383.085 119.904ZM385.834 122.671C386.43 123.604 386.834 124.943 386.834 126.88H392.834C392.834 124.123 392.257 121.58 390.89 119.441L385.834 122.671ZM386.834 126.88C386.834 128.799 386.308 130.52 385.233 132.116L390.21 135.468C391.951 132.883 392.834 129.995 392.834 126.88H386.834ZM385.233 132.116C384.199 133.652 382.57 135.014 380.144 136.117L382.627 141.579C385.834 140.122 388.428 138.113 390.21 135.468L385.233 132.116ZM380.129 136.124C377.873 137.165 374.819 137.768 370.826 137.768V143.768C375.365 143.768 379.352 143.091 382.643 141.572L380.129 136.124Z" fill="white" mask="url(#path-1-outside-1_80_7184)"/>
</svg>
